<svg width="24" height="24" viewBox="0 0 24 24" fill="none" xmlns="http://www.w3.org/2000/svg">
<path d="M18.07 7.91438C17.625 8.11156 17.147 8.24478 16.6445 8.305C17.1571 7.99805 17.5504 7.51098 17.7359 6.93119C17.2563 7.21575 16.725 7.42252 16.1596 7.53336C15.7066 7.05162 15.0618 6.75 14.3477 6.75C12.9771 6.75 11.8655 7.86163 11.8655 9.23331C11.8655 9.42728 11.8878 9.61593 11.9294 9.79818C9.86549 9.69427 8.03712 8.70574 6.81251 7.20403C6.59935 7.57173 6.47679 7.99805 6.47679 8.45208C6.47679 9.31324 6.91536 10.0737 7.58095 10.5187C7.17382 10.5053 6.7912 10.394 6.45654 10.208V10.24C6.45654 11.4427 7.31184 12.4462 8.44798 12.6742C8.23908 12.7307 8.02006 12.7606 7.79411 12.7606C7.63424 12.7606 7.4781 12.7456 7.32676 12.7169C7.64277 13.7027 8.55936 14.4211 9.64594 14.4403C8.79596 15.1064 7.72537 15.5034 6.56258 15.5034C6.36221 15.5034 6.16451 15.4917 5.97 15.4688C7.06884 16.1738 8.37337 16.5841 9.7749 16.5841C14.3418 16.5841 16.8385 12.8016 16.8385 9.52107C16.8385 9.41449 16.8358 9.30685 16.831 9.20027C17.316 8.84962 17.7369 8.41318 18.0689 7.91598L18.07 7.91438Z" fill="#3B4655"/>
</svg>
