<svg width="27" height="20" viewBox="0 0 27 20" fill="none" xmlns="http://www.w3.org/2000/svg">
<path fill-rule="evenodd" clip-rule="evenodd" d="M18.9081 16.2234C21.5502 16.033 23.7763 14.1148 24.3291 11.4887L26.2053 2.5769C26.4849 1.24883 25.4716 0 24.1144 0H13.6538C11.1691 0 8.98268 1.52858 8.09229 3.77619C8.2356 3.76586 8.38014 3.76061 8.52569 3.76061H15.2996C18.5568 3.76061 20.9887 6.75779 20.3177 9.94516L19.201 15.2493C19.13 15.5864 19.0315 15.9118 18.9081 16.2234Z" fill="white"/>
<path d="M18.9096 16.2231C18.7663 16.2334 18.6217 16.2386 18.4762 16.2386H11.7023C8.44505 16.2386 6.01314 13.2414 6.68417 10.0541L7.80084 4.74989C7.8718 4.41281 7.97033 4.08739 8.09377 3.7758C8.23709 3.76547 8.38163 3.76022 8.52719 3.76022H15.3011C18.5583 3.76022 20.9902 6.75741 20.3192 9.94478L19.2025 15.249C19.1316 15.5861 19.033 15.9115 18.9096 16.2231Z" fill="white" fill-opacity="0.62"/>
<path fill-rule="evenodd" clip-rule="evenodd" d="M18.9081 16.2231C19.0315 15.9115 19.1301 15.5861 19.201 15.249L20.3177 9.94478C20.9882 6.75984 18.5605 3.76478 15.307 3.76022H15.6287C19.9717 3.76022 23.2143 7.75648 22.3196 12.0063L21.6369 15.249C21.6299 15.2822 21.6226 15.3153 21.6151 15.3483C20.8131 15.8434 19.8893 16.1524 18.9081 16.2231ZM8.51776 3.76022H8.09848C8.09641 3.76541 8.09434 3.7706 8.09229 3.77579C8.233 3.76565 8.37489 3.76041 8.51776 3.76022Z" fill="black" fill-opacity="0.05"/>
<path fill-rule="evenodd" clip-rule="evenodd" d="M8.0918 3.77658C5.44961 3.96701 3.22359 5.88521 2.67073 8.51127L0.794551 17.4231C0.514952 18.7512 1.52825 20 2.88543 20H13.346C15.8308 20 18.0172 18.4714 18.9076 16.2238C18.7643 16.2342 18.6197 16.2394 18.4742 16.2394H11.7003C8.44307 16.2394 6.01117 13.2422 6.68219 10.0549L7.79887 4.75066C7.86983 4.41359 7.96836 4.08818 8.0918 3.77658Z" fill="white"/>
</svg>
