<svg width="25" height="24" viewBox="0 0 25 24" fill="none" xmlns="http://www.w3.org/2000/svg">
<path d="M18.27 7.91438C17.825 8.11156 17.347 8.24478 16.8444 8.305C17.3571 7.99805 17.7504 7.51098 17.9358 6.93119C17.4562 7.21575 16.9249 7.42252 16.3595 7.53336C15.9065 7.05162 15.2617 6.75 14.5477 6.75C13.177 6.75 12.0654 7.86163 12.0654 9.23331C12.0654 9.42728 12.0878 9.61593 12.1294 9.79818C10.0654 9.69427 8.23707 8.70574 7.01247 7.20403C6.79931 7.57173 6.67674 7.99805 6.67674 8.45208C6.67674 9.31324 7.11531 10.0737 7.78091 10.5187C7.37377 10.5053 6.99115 10.394 6.65649 10.208V10.24C6.65649 11.4427 7.51179 12.4462 8.64793 12.6742C8.43904 12.7307 8.22001 12.7606 7.99407 12.7606C7.8342 12.7606 7.67806 12.7456 7.52671 12.7169C7.84272 13.7027 8.75931 14.4211 9.84589 14.4403C8.99592 15.1064 7.92532 15.5034 6.76254 15.5034C6.56217 15.5034 6.36446 15.4917 6.16995 15.4688C7.26879 16.1738 8.57333 16.5841 9.97485 16.5841C14.5418 16.5841 17.0384 12.8016 17.0384 9.52107C17.0384 9.41449 17.0358 9.30685 17.031 9.20027C17.5159 8.84962 17.9369 8.41318 18.2689 7.91598L18.27 7.91438Z" fill="#1DA1F2"/>
</svg>
